nColumns=19
nRows=49
DataType=double
version=3
OpenSimVersion=4.1
endheader
time	ground_force_1_vx	ground_force_1_vy	ground_force_1_vz	ground_force_1_px	ground_force_1_py	ground_force_1_pz	ground_force_1_mx	ground_force_1_my	ground_force_1_mz	ground_force_2_vx	ground_force_2_vy	ground_force_2_vz	ground_force_2_px	ground_force_2_py	ground_force_2_pz	ground_force_2_mx	ground_force_2_my	ground_force_2_mz
0	0	0	0	346.098	0	96.3915	0	0	0	0	0	0	155.463	0	-502.663	0	0	0
0.01	0	0	0	325.975	0	90.7536	0	0	0	0	0	0	152.626	0	-493.228	0	0	0
0.02	0	0	0	289.629	0	80.5728	0	0	0	0	0	0	147.308	0	-475.55	0	0	0
0.03	0	0	0	256.1	0	71.1842	0	0	0	0	0	0	142.116	0	-458.3	0	0	0
0.04	0	0	0	225.274	0	62.5556	0	0	0	0	0	0	137.048	0	-441.472	0	0	0
0.05	0	0	0	197.037	0	54.6549	0	0	0	0	0	0	132.103	0	-425.062	0	0	0
0.06	0	0	0	171.274	0	47.4497	0	0	0	0	0	0	127.279	0	-409.065	0	0	0
0.07	0	0	0	147.873	0	40.9079	0	0	0	0	0	0	122.574	0	-393.474	0	0	0
0.08	0	0	0	126.718	0	34.9975	0	0	0	0	0	0	117.988	0	-378.284	0	0	0
0.09	0	0	0	107.696	0	29.6861	0	0	0	0	0	0	113.518	0	-363.491	0	0	0
0.1	0	0	0	90.6928	0	24.9415	0	0	0	0	0	0	109.164	0	-349.09	0	0	0
0.11	0	0	0	75.5948	0	20.7317	0	0	0	0	0	0	104.923	0	-335.074	0	0	0
0.12	0	0	0	62.2878	0	17.0244	0	0	0	0	0	0	100.794	0	-321.439	0	0	0
0.13	0	0	0	50.6579	0	13.7874	0	0	0	0	0	0	96.7754	0	-308.179	0	0	0
0.14	0	0	0	40.5911	0	10.9886	0	0	0	0	0	0	92.8661	0	-295.29	0	0	0
0.15	0	0	0	31.9734	0	8.59573	0	0	0	0	0	0	89.0645	0	-282.765	0	0	0
0.16	0	0	0	24.691	0	6.57663	0	0	0	0	0	0	85.3689	0	-270.6	0	0	0
0.17	0	0	0	18.6298	0	4.89913	0	0	0	0	0	0	81.778	0	-258.79	0	0	0
0.18	0	0	0	13.6758	0	3.53104	0	0	0	0	0	0	78.2901	0	-247.329	0	0	0
0.19	0	0	0	9.71521	0	2.44016	0	0	0	0	0	0	74.9039	0	-236.212	0	0	0
0.2	0	0	0	6.63395	0	1.59433	0	0	0	0	0	0	71.6177	0	-225.433	0	0	0
0.21	0	0	0	4.3181	0	0.961341	0	0	0	0	0	0	68.4301	0	-214.988	0	0	0
0.22	0	0	0	2.65368	0	0.509025	0	0	0	0	0	0	65.3396	0	-204.872	0	0	0
0.23	0	0	0	1.52675	0	0.205192	0	0	0	0	0	0	62.3446	0	-195.078	0	0	0
0.24	0	0	0	0.823332	0	0.0176567	0	0	0	0	0	0	59.4438	0	-185.602	0	0	0
0.25	-0.286179	1.3477	-0.885272	0.42948	0	-0.0857646	0	0.867325	0	0	0	0	56.6355	0	-176.439	0	0	0
0.26	-0.418342	8.64632	-3.3758	0.232578	0	-0.136825	0	3.80342	0	0	0	0	53.9183	0	-167.583	0	0	0
0.27	1.44102	17.4243	-2.91326	0.139513	0	-0.161199	0	4.13602	0	0	0	0	51.2907	0	-159.029	0	0	0
0.28	4.60771	33.8717	-1.99149	0.095035	0	-0.172958	0	4.32504	0	0	0	0	48.7512	0	-150.772	0	0	0
0.29	9.17163	62.5016	-0.293566	0.0724527	0	-0.178755	0	4.4451	0	0	0	0	46.2982	0	-142.806	0	0	0
0.3	13.1467	106.276	2.44038	0.0618565	0	-0.181857	0	4.50562	0	0	0	0	43.9303	0	-135.127	0	0	0
0.31	11.3714	162.171	6.03481	0.0582953	0	-0.183822	0	4.48654	0	0	0	0	41.6459	0	-127.728	0	0	0
0.32	0.365782	221.962	9.74816	0.0587376	0	-0.185111	0	4.34505	0	0	0	0	39.4437	0	-120.606	0	0	0
0.33	-17.9753	280.167	12.1649	0.0616935	0	-0.185609	0	4.06713	0	0	0	0	37.322	0	-113.754	0	0	0
0.34	-38.3879	339.254	11.9773	0.0662275	0	-0.185168	0	3.72589	0	0	0	0	35.2793	0	-107.168	0	0	0
0.35	-56.8639	403.497	8.62921	0.0716828	0	-0.183939	0	3.43825	0	0	0	0	33.3142	0	-100.842	0	0	0
0.36	-73.0379	472.192	2.222	0.0774519	0	-0.18228	0	3.27608	0	0	0	0	31.4252	0	-94.77	0	0	0
0.37	-87.9637	541.27	-6.37287	0.0832584	0	-0.180501	0	3.21366	0	0	0	0	29.6107	0	-88.9482	0	0	0
0.38	-101.764	607.149	-15.6066	0.0889645	0	-0.178812	0	3.14242	0	0	0	0	27.8693	0	-83.3707	0	0	0
0.39	-114.072	667.267	-24.0956	0.0944238	0	-0.177324	0	2.98469	0	0	0	0	26.1995	0	-78.0324	0	0	0
0.4	-124.664	719.5	-31.4721	0.0995594	0	-0.176058	0	2.77612	0	0	0	0	24.5996	0	-72.9279	0	0	0
0.41	-133.185	762.774	-38.0123	0.104306	0	-0.174998	0	2.60953	0	0	0	0	23.0684	0	-68.0521	0	0	0
0.42	-139.429	798.523	-43.8422	0.108683	0	-0.174131	0	2.53134	0	0	0	0	21.6042	0	-63.3997	0	0	0
0.43	-143.482	829.396	-48.5125	0.112682	0	-0.173492	0	2.50625	0	0	0	0	20.2055	0	-58.9655	0	0	0
0.44	-145.272	856.741	-51.3101	0.116223	0	-0.173117	0	2.4895	0	0	0	0	18.8709	0	-54.7442	0	0	0
0.45	-144.575	880.249	-51.9641	0.119338	0	-0.173003	0	2.48311	0	0	0	0	17.5988	0	-50.7306	0	0	0
0.46	-141.312	898.958	-50.8866	0.122097	0	-0.173086	0	2.49339	0	0	0	0	16.3877	0	-46.9195	0	0	0
0.47	-135.805	911.659	-48.806	0.124591	0	-0.173271	0	2.52189	0	0	0	0	15.2362	0	-43.3055	0	0	0
0.48	-128.757	917.105	-46.3753	0.126966	0	-0.17348	0	2.56875	0	0	0	0	14.1427	0	-39.8835	0	0	0
